<?xml version="1.0" encoding="UTF-8" standalone="no"?>
<!-- Uploaded to: SVG Repo, www.svgrepo.com, Transformed by: SVG Repo Mixer Tools -->

<svg
   width="256px"
   height="256px"
   viewBox="0 0 24 24"
   id="down-sign"
   class="icon glyph"
   fill="#000000"
   version="1.1"
   sodipodi:docname="target.svg"
   inkscape:version="1.2.2 (b0a8486541, 2022-12-01)"
   xmlns:inkscape="http://www.inkscape.org/namespaces/inkscape"
   xmlns:sodipodi="http://sodipodi.sourceforge.net/DTD/sodipodi-0.dtd"
   xmlns="http://www.w3.org/2000/svg"
   xmlns:svg="http://www.w3.org/2000/svg">
  <defs
     id="defs10" />
  <sodipodi:namedview
     id="namedview8"
     pagecolor="#ffffff"
     bordercolor="#111111"
     borderopacity="1"
     inkscape:showpageshadow="0"
     inkscape:pageopacity="0"
     inkscape:pagecheckerboard="1"
     inkscape:deskcolor="#d1d1d1"
     showgrid="false"
     inkscape:zoom="1.8478689"
     inkscape:cx="115.80908"
     inkscape:cy="136.37331"
     inkscape:window-width="1600"
     inkscape:window-height="835"
     inkscape:window-x="0"
     inkscape:window-y="0"
     inkscape:window-maximized="1"
     inkscape:current-layer="down-sign" />
  <g
     id="SVGRepo_bgCarrier"
     stroke-width="0" />
  <g
     id="SVGRepo_tracerCarrier"
     stroke-linecap="round"
     stroke-linejoin="round" />
  <g
     id="SVGRepo_iconCarrier"
     transform="matrix(1.1169276,0,0,1.1169276,-1.4043599,-1.4052811)"
     style="stroke:#000000;stroke-opacity:1">
    <path
       d="m 21.51,4.14 a 1,1 0 0 0 -1,0 L 12,8.86 3.49,4.13 a 1,1 0 0 0 -1,0 A 1,1 0 0 0 2,5 v 9 a 1,1 0 0 0 0.51,0.87 l 9,5 0.15,0.06 h 0.09 A 1,1 0 0 0 12,20 v 0 a 1,1 0 0 0 0.25,0 h 0.09 l 0.15,-0.06 9,-5 A 1,1 0 0 0 22,14 V 5 A 1,1 0 0 0 21.51,4.14 Z"
       style="fill:#ffffff;stroke:#000000;stroke-opacity:1"
       id="path4" />
  </g>
</svg>
